<svg version="1.1" id="Layer_1" xmlns="http://www.w3.org/2000/svg" xmlns:xlink="http://www.w3.org/1999/xlink" x="0px" y="0px"
	 width="100%" viewBox="0 0 50 50" enable-background="new 0 0 50 50" xml:space="preserve">
<path fill="#000000" opacity="1.000000" stroke="none" 
	d="
M23.000166,51.000000 
	C15.351514,51.000000 8.202804,51.000000 1.027046,51.000000 
	C1.027046,34.393158 1.027046,17.786263 1.027046,1.089684 
	C17.564688,1.089684 34.130024,1.089684 50.847679,1.089684 
	C50.847679,17.665600 50.847679,34.332638 50.847679,51.000000 
	C41.787479,51.000000 32.643795,51.000000 23.000166,51.000000 
M17.543663,9.000000 
	C15.213018,9.000009 12.791473,8.606445 10.578858,9.117483 
	C8.607238,9.572858 5.627666,10.738234 5.305803,12.109628 
	C4.782956,14.337387 3.705044,17.306364 7.398816,19.292805 
	C13.886093,22.781540 19.929239,27.096130 26.129950,31.046701 
	C32.315746,27.047073 38.199474,22.750105 44.552773,19.323849 
	C48.228508,17.341568 47.253727,14.401062 46.702236,12.168770 
	C46.356651,10.769945 43.365406,9.224425 41.499229,9.141607 
	C33.856491,8.802436 26.189926,9.000010 17.543663,9.000000 
M37.378658,43.000000 
	C39.211807,42.999657 41.264027,43.516163 42.818130,42.857464 
	C44.459133,42.161922 46.691521,40.434456 46.810318,39.003738 
	C47.272728,33.434799 46.998791,27.804716 46.998791,21.618038 
	C37.915665,25.132193 44.345798,33.078976 41.440926,37.662476 
	C30.914249,37.662476 20.505037,37.662476 10.118593,37.662476 
	C9.661629,23.420437 9.661629,23.420437 5.000018,22.286230 
	C5.000018,27.331171 5.162331,32.327847 4.951295,37.308701 
	C4.765292,41.698769 6.760441,43.130005 10.913860,43.049423 
	C19.409754,42.884590 27.911083,43.000000 37.378658,43.000000 
z"/>
<path fill="#FFFFFF" opacity="1.000000" stroke="none" 
	d="
M18.037899,9.000000 
	C26.189926,9.000010 33.856491,8.802436 41.499229,9.141607 
	C43.365406,9.224425 46.356651,10.769945 46.702236,12.168770 
	C47.253727,14.401062 48.228508,17.341568 44.552773,19.323849 
	C38.199474,22.750105 32.315746,27.047073 26.129950,31.046701 
	C19.929239,27.096130 13.886093,22.781540 7.398816,19.292805 
	C3.705044,17.306364 4.782956,14.337387 5.305803,12.109628 
	C5.627666,10.738234 8.607238,9.572858 10.578858,9.117483 
	C12.791473,8.606445 15.213018,9.000009 18.037899,9.000000 
M32.415970,14.000000 
	C25.083366,14.000000 17.750765,14.000000 10.418161,14.000000 
	C14.559283,17.592386 18.770144,20.464029 23.205713,22.931778 
	C24.525284,23.665926 26.837528,23.935385 28.072763,23.267345 
	C32.783512,20.719681 37.240257,17.702341 41.791889,14.860456 
	C41.712833,14.573637 41.633781,14.286819 41.554726,14.000000 
	C38.830349,14.000000 36.105976,14.000000 32.415970,14.000000 
z"/>
<path fill="#FFFFFF" opacity="1.000000" stroke="none" 
	d="
M36.894417,43.000000 
	C27.911083,43.000000 19.409754,42.884590 10.913860,43.049423 
	C6.760441,43.130005 4.765292,41.698769 4.951295,37.308701 
	C5.162331,32.327847 5.000018,27.331171 5.000018,22.286230 
	C9.661629,23.420437 9.661629,23.420437 10.118593,37.662476 
	C20.505037,37.662476 30.914249,37.662476 41.440926,37.662476 
	C44.345798,33.078976 37.915665,25.132193 46.998791,21.618038 
	C46.998791,27.804716 47.272728,33.434799 46.810318,39.003738 
	C46.691521,40.434456 44.459133,42.161922 42.818130,42.857464 
	C41.264027,43.516163 39.211807,42.999657 36.894417,43.000000 
z"/>
<path fill="#000000" opacity="1.000000" stroke="none" 
	d="
M32.898785,14.000000 
	C36.105976,14.000000 38.830349,14.000000 41.554726,14.000000 
	C41.633781,14.286819 41.712833,14.573637 41.791889,14.860456 
	C37.240257,17.702341 32.783512,20.719681 28.072763,23.267345 
	C26.837528,23.935385 24.525284,23.665926 23.205713,22.931778 
	C18.770144,20.464029 14.559283,17.592386 10.418161,14.000000 
	C17.750765,14.000000 25.083366,14.000000 32.898785,14.000000 
z"/>
</svg>